# xmcd
#
# Track frame offsets: 
#        150
#        17785
#        41750
#        61125
#        82557
#        101207
#        115740
#        137165
#        156934
#        177210
#        192855
#
# Disc length: 2815 seconds
#
# Revision: 3
# Processed by: cddbd v1.5PL3 Copyright (c) Steve Scherf et al.
# Submitted via: ExactAudioCopy v0.90b4
#
DISCID=880afd0b
DTITLE=Santana - Veintiuno - Los Éxitos Más Grandes Del Siglo [CD1]
DYEAR=2001
DGENRE=Rock
TTITLE0=Evil Ways
TTITLE1=Black Magic - Gypsy Queen
TTITLE2=Oye Como Va
TTITLE3=Samba Pa Ti
TTITLE4=She's Not There
TTITLE5=Shades of Time
TTITLE6=Open Invitation
TTITLE7=Hold On
TTITLE8=Bella
TTITLE9=Winning
TTITLE10=All I Ever Wanted
EXTD=
EXTT0=\n\n\n\n
EXTT1=
EXTT2=
EXTT3=
EXTT4=
EXTT5=
EXTT6=
EXTT7=
EXTT8=
EXTT9=
EXTT10=
PLAYORDER=
